<?xml version="1.0" encoding="UTF-8" standalone="no"?>
<svg
   version="1.1"
   width="400"
   height="400"
   id="svg41"
   sodipodi:docname="AutisMyTy.svg"
   xml:space="preserve"
   inkscape:version="1.4.2 (f4327f4, 2025-05-13)"
   xmlns:inkscape="http://www.inkscape.org/namespaces/inkscape"
   xmlns:sodipodi="http://sodipodi.sourceforge.net/DTD/sodipodi-0.dtd"
   xmlns:xlink="http://www.w3.org/1999/xlink"
   xmlns="http://www.w3.org/2000/svg"
   xmlns:svg="http://www.w3.org/2000/svg"><defs
     id="defs41"><linearGradient
       id="linearGradient1"
       inkscape:collect="always"><stop
         style="stop-color:#0057bc;stop-opacity:1;"
         offset="0"
         id="stop1" /><stop
         style="stop-color:#0074d4;stop-opacity:1;"
         offset="1"
         id="stop2" /></linearGradient><linearGradient
       inkscape:collect="always"
       xlink:href="#linearGradient1"
       id="linearGradient2"
       x1="146.01797"
       y1="125.08157"
       x2="146.01797"
       y2="337.66656"
       gradientUnits="userSpaceOnUse" /></defs><sodipodi:namedview
     id="namedview41"
     pagecolor="#ffffff"
     bordercolor="#000000"
     borderopacity="0.25"
     inkscape:showpageshadow="2"
     inkscape:pageopacity="0.0"
     inkscape:pagecheckerboard="0"
     inkscape:deskcolor="#d1d1d1"
     inkscape:zoom="1.8627844"
     inkscape:cx="205.33777"
     inkscape:cy="175.81208"
     inkscape:window-width="2560"
     inkscape:window-height="1369"
     inkscape:window-x="2552"
     inkscape:window-y="-8"
     inkscape:window-maximized="1"
     inkscape:current-layer="svg41" /><ellipse
     style="display:inline;fill:#0058ba;fill-opacity:1;stroke-width:1.03148"
     id="path42"
     cx="200.56447"
     cy="61.697445"
     rx="31.941034"
     ry="32.852104"
     inkscape:label="HorniHlava" /><ellipse
     style="display:inline;fill:#006bcc;fill-opacity:1;stroke-width:1.03148"
     id="path42-7"
     cx="33.377213"
     cy="235.11646"
     rx="31.941034"
     ry="32.852104"
     inkscape:label="LevaHlava" /><ellipse
     style="display:inline;fill:#0080de;fill-opacity:1;stroke-width:1.03148"
     id="path42-9"
     cx="366.70007"
     cy="235.35545"
     rx="31.941034"
     ry="32.852104"
     inkscape:label="PravaHlava" /><path
     d="m 131.39581,248.00711 c 11.46625,-65.41785 38.95126,-85.86002 61.80087,-97.5668 22.84957,-11.70681 41.06373,-14.67849 62.1486,-9.44521 21.08458,5.23327 45.28581,18.56226 59.6759,51.07803 1.36973,3.09503 5.30001,5.38043 8.67241,4.91525 3.37267,-0.46522 6.49533,-3.73165 6.99591,-7.07683 3.83652,-25.63793 -14.82785,-52.64989 -35.64098,-69.54243 -20.81312,-16.89287 -43.4783,-23.620693 -59.46501,-23.02241 -15.98642,0.598011 -25.29502,8.52154 -36.46931,7.31284 -11.17427,-1.20868 -24.21398,-11.55012 -43.31731,-8.497605 -19.10335,3.052805 -44.27006,19.499905 -61.862032,38.372605 -17.591654,18.873 -27.608861,40.17163 -27.857131,57.11198 -0.248292,16.94037 9.272042,29.52218 8.319904,43.17313 -0.952159,13.65093 -12.376503,28.37101 -9.065069,48.76511 3.311456,20.39411 21.358713,46.46252 48.512298,60.4421 27.15357,13.98018 63.4135,15.87153 94.94798,1.57539 31.5348,-14.29643 58.34418,-44.78005 54.37638,-72.39021 l -11.05875,-7.06416 c -30.17102,31.66367 -53.55669,31.84189 -75.67834,27.27738 -22.12139,-4.56445 -42.97846,-13.87159 -54.57475,-38.39443 z"
     stroke="#000000"
     stroke-width="0.710404"
     fill-opacity="0"
     id="path6"
     inkscape:label="LeveTelo"
     style="display:inline;fill:url(#linearGradient2);fill-opacity:1;stroke:none"
     sodipodi:nodetypes="cscsssccsccsssccccscc" /><path
     d="m 226.44301,357.30785 c -1.48475,-3.38262 0.68482,-8.04472 4.0333,-9.94641 39.54979,-22.46134 45.19919,-52.76111 46.46229,-76.54139 1.26281,-23.78029 -1.83333,-40.99148 -10.9946,-59.44201 -9.16127,-18.45024 -24.31412,-38.48605 -43.74317,-42.44776 -3.75892,-0.76647 -6.64621,-4.93445 -6.59792,-8.78595 0.0479,-3.81817 4.37096,-7.35994 8.20673,-7.31392 44.0845,0.52892 64.05914,20.6957 75.78344,38.29544 11.72433,17.59941 15.2003,32.32894 19.87167,45.03522 4.67108,12.70602 10.53724,23.3891 12.7326,33.66479 2.19564,10.27595 0.72079,20.14509 -13.86147,38.9066 -14.58226,18.76147 -42.25334,46.5172 -82.44989,53.81488 -4.00979,0.72798 -7.91115,-1.74961 -9.44298,-5.23949 z"
     stroke="#000000"
     stroke-width="0.710404"
     fill-opacity="0"
     id="path7"
     sodipodi:nodetypes="sssssssssssss"
     inkscape:label="PraveTelo"
     style="display:inline;fill:#0098e8;fill-opacity:1;stroke:none" /><path
     d="m 135.78595,315.25582 c -2.92246,0.26446 -5.89808,2.48763 -6.9389,5.21263 -1.04116,2.72591 -0.19852,6.25801 1.71213,8.47282 14.00236,16.23147 41.38277,18.08988 70.65268,11.68083 29.26997,-6.40906 59.90321,-20.96177 67.30143,-73.90954 0.50577,-3.61968 -2.16395,-7.91788 -5.68027,-8.99266 -3.51428,-1.07416 -7.31192,1.57347 -9.78702,4.26534 -16.50581,17.9514 -58.94204,47.9933 -117.26005,53.27058 z"
     stroke="#000000"
     stroke-width="0.710404"
     fill-opacity="0"
     id="path4"
     inkscape:label="SpodniRuka"
     style="display:inline;fill:#0099e9;fill-opacity:1;stroke:none"
     sodipodi:nodetypes="ssssssss" /><path
     d="m 100.68487,178.02067 c -5.888646,15.35468 -5.763389,31.22144 15.21902,72.52859 1.47646,2.90664 5.25721,4.97708 8.50401,4.52643 3.24739,-0.45073 6.32794,-3.46764 6.9291,-6.66882 5.28223,-28.12767 7.5615,-26.99908 5.44716,-28.9045 -2.11421,-1.90528 -8.87234,-7.00416 -8.70989,-19.02514 0.16237,-12.02069 3.4172,-33.67942 18.3086,-47.72815 2.63298,-2.48399 3.15176,-7.45324 1.11135,-10.43674 -2.03861,-2.98088 -6.9983,-4.55976 -18.11511,0.53044 -11.11681,5.09019 -22.80573,19.82357 -28.69424,35.17789 z"
     stroke="#000000"
     stroke-width="0.710404"
     fill-opacity="0"
     id="path5-3"
     inkscape:label="LevaRuka"
     style="display:inline;fill:#0195e6;fill-opacity:1;stroke:none"
     sodipodi:nodetypes="ssssscssss" /></svg>
