<?xml version="1.0" encoding="UTF-8" standalone="no"?>
<svg
   version="1.1"
   width="400"
   height="400"
   id="svg41"
   sodipodi:docname="AutisMyTy.svg"
   xml:space="preserve"
   inkscape:version="1.4.2 (ebf0e940d0, 2025-05-08)"
   xmlns:inkscape="http://www.inkscape.org/namespaces/inkscape"
   xmlns:sodipodi="http://sodipodi.sourceforge.net/DTD/sodipodi-0.dtd"
   xmlns:xlink="http://www.w3.org/1999/xlink"
   xmlns="http://www.w3.org/2000/svg"
   xmlns:svg="http://www.w3.org/2000/svg"><defs
     id="defs41"><linearGradient
       id="linearGradient1"
       inkscape:collect="always"><stop
         style="stop-color:#0057bc;stop-opacity:1;"
         offset="0"
         id="stop1" /><stop
         style="stop-color:#0074d4;stop-opacity:1;"
         offset="1"
         id="stop2" /></linearGradient><linearGradient
       inkscape:collect="always"
       xlink:href="#linearGradient1"
       id="linearGradient2"
       x1="146.01797"
       y1="125.08157"
       x2="146.01797"
       y2="337.66656"
       gradientUnits="userSpaceOnUse" /></defs><sodipodi:namedview
     id="namedview41"
     pagecolor="#ffffff"
     bordercolor="#000000"
     borderopacity="0.25"
     inkscape:showpageshadow="2"
     inkscape:pageopacity="0.0"
     inkscape:pagecheckerboard="0"
     inkscape:deskcolor="#d1d1d1"
     inkscape:zoom="1.3171875"
     inkscape:cx="140.07117"
     inkscape:cy="256.98695"
     inkscape:window-width="1875"
     inkscape:window-height="1052"
     inkscape:window-x="0"
     inkscape:window-y="0"
     inkscape:window-maximized="1"
     inkscape:current-layer="svg41" /><ellipse
     style="display:inline;fill:#0058ba;fill-opacity:1;stroke-width:1.03148"
     id="path42"
     cx="200.56447"
     cy="61.697445"
     rx="31.941034"
     ry="32.852104"
     inkscape:label="HorniHlava" /><ellipse
     style="display:inline;fill:#006bcc;fill-opacity:1;stroke-width:1.03148"
     id="path42-7"
     cx="33.377213"
     cy="235.11646"
     rx="31.941034"
     ry="32.852104"
     inkscape:label="LevaHlava" /><ellipse
     style="display:inline;fill:#0080de;fill-opacity:1;stroke-width:1.03148"
     id="path42-9"
     cx="366.70007"
     cy="235.35545"
     rx="31.941034"
     ry="32.852104"
     inkscape:label="PravaHlava" /><path
     d="m 131.39581,248.00711 c 11.46625,-65.41785 38.95126,-85.86002 61.80087,-97.5668 22.84957,-11.70681 41.06373,-14.67849 62.1486,-9.44521 21.08458,5.23327 45.04017,18.67208 59.6759,51.07803 1.11934,3.19413 5.33424,5.58316 8.67241,4.91525 3.3946,-0.2608 6.79488,-3.70038 6.99591,-7.07683 4.13383,-25.59167 -14.82785,-52.64989 -35.64098,-69.54243 -20.81312,-16.89287 -43.4783,-23.620693 -59.46501,-23.02241 -15.98642,0.598011 -25.29502,8.52154 -36.46931,7.31284 -11.17427,-1.20868 -24.21398,-11.55012 -43.31731,-8.497605 -19.10335,3.052805 -44.27006,19.499905 -61.862032,38.372605 -17.591654,18.873 -27.608861,40.17163 -27.857131,57.11198 -0.248292,16.94037 9.272042,29.52218 8.319904,43.17313 -0.952159,13.65093 -12.376503,28.37101 -9.065069,48.76511 3.311456,20.39411 21.358713,46.46252 48.512298,60.4421 27.15357,13.98018 63.4135,15.87153 94.94798,1.57539 31.5348,-14.29643 58.34418,-44.78005 54.37638,-72.39021 l -11.05875,-7.06416 c -30.17102,31.66367 -53.55669,31.84189 -75.67834,27.27738 -22.12139,-4.56445 -42.97846,-13.87159 -54.57475,-38.39443 z"
     stroke="#000000"
     stroke-width="0.710404"
     fill-opacity="0"
     id="path6"
     inkscape:label="LeveTelo"
     style="display:inline;fill:url(#linearGradient2);fill-opacity:1;stroke:none" /><path
     d="m 226.44301,357.30785 c -1.51138,-3.37081 0.71319,-7.99562 4.0333,-9.94641 39.57776,-22.41201 45.19919,-52.76111 46.46229,-76.54139 1.26281,-23.78029 -1.83333,-40.99148 -10.9946,-59.44201 -9.16127,-18.45024 -24.388,-38.13956 -43.74317,-42.44776 -3.81364,-0.41607 -6.71197,-4.93584 -6.59792,-8.78595 -0.0179,-3.81843 4.38657,-7.6627 8.20673,-7.31392 44.08709,0.226 64.05914,20.6957 75.78344,38.29544 11.72433,17.59941 15.2003,32.32894 19.87167,45.03522 4.67108,12.70602 10.53724,23.3891 12.7326,33.66479 2.19564,10.27595 0.72079,20.14509 -13.86147,38.9066 -14.58226,18.76147 -42.27192,46.4156 -82.44989,53.81488 -4.02695,0.62612 -7.93787,-1.738 -9.44298,-5.23949 z"
     stroke="#000000"
     stroke-width="0.710404"
     fill-opacity="0"
     id="path7"
     sodipodi:nodetypes="ccsscccsssscc"
     inkscape:label="PraveTelo"
     style="display:inline;fill:#0098e8;fill-opacity:1;stroke:none" /><path
     d="m 135.78595,315.25582 c -2.93101,0.14094 -6.00397,2.44951 -6.9389,5.21263 -1.1455,2.68373 -0.38728,6.43605 1.71213,8.47282 13.80505,16.39961 41.38274,18.08976 70.65268,11.68083 29.26994,-6.40918 60.23214,-20.91685 67.30143,-73.90954 0.83246,-3.55878 -2.09233,-8.18873 -5.68027,-8.99266 -3.42224,-1.33876 -8.46127,0.85731 -9.78702,4.26534 -9.06358,16.69667 -58.95333,47.87003 -117.26005,53.27058 z"
     stroke="#000000"
     stroke-width="0.710404"
     fill-opacity="0"
     id="path4"
     inkscape:label="SpodniRuka"
     style="display:inline;fill:#0099e9;fill-opacity:1;stroke:none" /><path
     d="m 137.46126,139.42885 c -19.19896,8.50412 -30.88796,23.23747 -36.77639,38.59182 -5.888724,15.35465 -5.976936,31.33061 15.21902,72.52859 1.25863,3.00738 5.28613,5.15096 8.50401,4.52643 3.26692,-0.27555 6.54866,-3.43398 6.9291,-6.66882 5.03165,-28.28694 3.90781,-29.53162 1.79354,-31.43712 -2.11428,-1.9052 -5.21872,-4.47154 -5.05627,-16.49252 0.16237,-12.02069 3.59181,-33.49661 18.3086,-47.72815 2.80003,-2.29404 3.3664,-7.61197 1.11135,-10.43674 -1.81284,-3.12333 -6.9983,-4.55976 -10.177,-2.81947 z"
     stroke="#000000"
     stroke-width="0.710404"
     fill-opacity="0"
     id="path5-3"
     inkscape:label="LevaRuka"
     style="display:inline;fill:#0195e6;fill-opacity:1;stroke:none" /></svg>
