<?xml version="1.0" encoding="UTF-8" standalone="no"?>
<svg
   version="1.1"
   width="400"
   height="400"
   id="svg41"
   sodipodi:docname="AutisMyTy.svg"
   xml:space="preserve"
   inkscape:version="1.4.2 (ebf0e940d0, 2025-05-08)"
   xmlns:inkscape="http://www.inkscape.org/namespaces/inkscape"
   xmlns:sodipodi="http://sodipodi.sourceforge.net/DTD/sodipodi-0.dtd"
   xmlns:xlink="http://www.w3.org/1999/xlink"
   xmlns="http://www.w3.org/2000/svg"
   xmlns:svg="http://www.w3.org/2000/svg"><defs
     id="defs41"><linearGradient
       id="linearGradient42"
       inkscape:collect="always"><stop
         style="stop-color:#0057bc;stop-opacity:1;"
         offset="0"
         id="stop42" /><stop
         style="stop-color:#0074d4;stop-opacity:1;"
         offset="1"
         id="stop43" /></linearGradient><linearGradient
       inkscape:collect="always"
       xlink:href="#linearGradient42"
       id="linearGradient43"
       x1="-28.332405"
       y1="-3.3090334"
       x2="-28.332405"
       y2="247.39093"
       gradientUnits="userSpaceOnUse"
       gradientTransform="matrix(1.0170815,0,0,1.0460922,181.05978,99.555435)" /></defs><sodipodi:namedview
     id="namedview41"
     pagecolor="#ffffff"
     bordercolor="#000000"
     borderopacity="0.25"
     inkscape:showpageshadow="2"
     inkscape:pageopacity="0.0"
     inkscape:pagecheckerboard="0"
     inkscape:deskcolor="#d1d1d1"
     inkscape:zoom="1.3171875"
     inkscape:cx="71.364177"
     inkscape:cy="180.30842"
     inkscape:window-width="1875"
     inkscape:window-height="1052"
     inkscape:window-x="0"
     inkscape:window-y="0"
     inkscape:window-maximized="1"
     inkscape:current-layer="svg41" /><path
     d="m 181.05976,99.555434 c 1.29303,0.567286 2.57859,1.152096 3.86471,1.735656 5.13032,2.18025 9.6684,2.81454 15.20109,2.77102 7.3202,-0.0126 11.92639,-0.55342 24.44968,-4.511272 17.28034,-5.385331 35.67055,-0.176056 51.1883,8.340132 8.22399,4.40338 15.36278,10.44506 22.45874,16.4923 15.29899,13.33098 31.16793,36.9122 33.51202,58.02542 0.21623,5.15764 -0.50476,8.77495 -3.32933,13.18647 -3.05125,2.09219 -3.05125,2.09219 -6.42033,2.3537 -5.78883,-2.01826 -7.10013,-6.41638 -9.85298,-11.76853 -3.22689,-5.52902 -6.46129,-10.91066 -10.61578,-15.75676 -3.00845,-3.68874 -6.46326,-6.95129 -9.72583,-10.39554 -18.23221,-17.08041 -40.04739,-21.96829 -64.07616,-20.92183 -25.93528,1.43834 -51.31399,19.64976 -68.14445,38.70541 -14.86846,18.13888 -24.0639,38.59163 -27.07508,62.0808 -1.4016,10.66747 -2.1785,16.45372 -10.60108,16.56141 3.70543,12.5507 22.26231,27.07627 36.97295,33.93119 11.04877,4.26899 20.62411,6.39146 32.48701,6.28883 l 2.08891,-0.008 c 15.84099,-0.12862 27.7723,-3.13018 40.27094,-13.5775 2.13746,-1.71214 5.80297,-4.11336 5.80297,-4.11336 1.67175,-1.7672 2.75664,-4.24419 4.47114,-5.96752 l 3.58985,-1.92428 2.11648,-1.76185 1.15897,-3.37499 c 1.97849,-3.66286 4.11908,-3.56576 7.9636,-5.0866 3.46783,-0.087 3.92231,-0.69822 6.62995,1.48453 3.24276,4.28819 2.64647,9.11536 2.05479,14.20674 -2.47611,15.08625 -10.26061,30.29693 -19.80725,41.96328 l -1.93766,2.31554 c -1.86742,0.98985 -1.84327,1.26285 -3.93704,3.07716 -3.12792,2.70442 -2.83837,3.52343 -5.88443,6.32325 -20.21977,19.07217 -55.10527,31.32502 -82.56684,30.13405 -19.26055,-1.58416 -36.88682,-11.41785 -51.77182,-23.54525 l -2.268566,-1.84701 c -1.670104,-1.4126 -3.27024,-2.91209 -4.851002,-4.42953 l -2.034163,-2.0923 C 79.280766,316.03709 64.954523,292.73369 63.963795,274.05208 c 1.216388,-6.05115 3.135386,-11.34434 5.657514,-16.93361 6.634015,-14.77213 5.266356,-28.55532 0.444974,-43.73974 l -1.06874,-2.54984 c -5.389422,-14.96423 -2.483448,-30.45641 3.690898,-44.6142 15.788308,-33.2803 44.289939,-57.22567 77.727269,-69.998271 11.90684,-3.812953 19.44687,-1.650783 30.64405,3.339015 z"
     fill="#0063c4"
     id="path1"
     sodipodi:nodetypes="cccccccccccccccccccccccccccccccccccccccccccc"
     inkscape:label="path1"
     style="fill:url(#linearGradient43);fill-opacity:1;stroke-width:1.03148" /><path
     d="m 232.79931,153.42458 2.33239,0.0132 c 10.49096,0.21491 19.62927,3.42366 29.19714,7.63627 5.65174,2.47265 10.23929,5.68979 15.54344,10.25517 2.37304,2.03299 4.67757,4.06757 9.88359,9.62058 1.83946,2.11834 3.53609,4.22422 5.21256,6.47269 2.67208,3.57175 3.35369,4.50621 7.24272,9.94503 11.5367,16.47026 17.73909,36.16289 24.23663,55.14459 0.90781,2.61716 1.84907,5.21857 2.80342,7.8181 0.81394,2.26823 1.63766,4.53264 2.48385,6.78836 3.40785,9.59481 1.45375,17.653 -2.313,26.80918 -4.8283,10.68593 -12.09284,19.75969 -19.38017,28.72259 -3.11048,3.78993 -5.32791,6.24155 -7.06395,7.89064 -1.73691,1.62426 -3.71534,2.94036 -5.62995,4.32842 l -2.37955,1.68661 -2.41733,1.72748 c -15.76317,11.18957 -37.55786,26.54639 -57.52692,25.53631 -3.32458,-0.87162 -7.94261,-3.63711 -8.54916,-5.19913 l -0.12985,-0.5761 c -0.33777,-1.86768 8.81254,-10.03965 14.08225,-13.83902 17.60017,-13.01645 30.99365,-33.44135 35.08932,-55.50825 4.90769,-31.60142 -0.64977,-65.37595 -18.30748,-92.05611 -4.04425,-5.30653 -7.74305,-10.23579 -12.99389,-14.66938 -6.40305,-5.16092 -11.27721,-7.7769 -17.70925,-10.76374 l -2.52482,-1.19934 c -6.08081,-3.04218 -6.69507,-4.09514 -8.01547,-6.62593 l -0.4569,-2.30875 c 0.91423,-7.09187 9.03692,-7.71323 17.29038,-7.64955 z"
     fill="#0098e8"
     id="path2"
     sodipodi:nodetypes="cccccccccccccccccccccccccccc"
     style="stroke-width:1.03148" /><path
     d="m 265.49069,260.40324 c 3.40125,2.42266 3.33138,6.68306 3.12895,11.32374 -1.62367,16.96834 -9.92771,34.30903 -20.56412,47.30705 l -2.03415,2.0922 c -1.5296,1.58549 -1.5296,1.58549 -3.62334,3.3998 -3.12795,2.70442 -3.12795,2.70442 -6.17402,5.50424 -5.61359,5.295 -11.72092,9.47496 -18.27142,13.41487 l -4.34855,2.33868 c -5.79027,3.42623 -7.77631,3.29107 -15.92484,3.87454 -8.59244,1.5e-4 -15.96087,-0.0846 -21.95199,-0.25336 -14.24362,-1.66837 -19.42935,-5.16221 -31.92252,-11.54131 l -2.06645,-1.05273 c -3.09231,-1.63153 -5.67054,-3.22223 -8.39043,-5.48534 -2.17692,-2.15457 -5.79147,-7.41114 -3.71969,-10.39325 3.42009,-2.61779 5.63889,-2.33051 9.86985,-2.19663 l 2.19154,0.0406 c 2.31638,0.0441 4.63077,0.11534 6.94631,0.19242 15.16952,0.48202 29.13186,-0.76739 43.60736,-5.88427 l 2.28992,-0.79887 c 7.56197,-2.76523 14.24291,-6.55366 20.97583,-11.03504 l 2.54271,-1.67131 c 4.10012,-2.90698 6.19999,-5.35614 8.44257,-10.03185 2.53109,-3.93463 5.07062,-4.81787 10.37342,-9.21869 l 2.03417,-2.09219 c 1.67175,-1.7672 3.37091,-3.50712 5.08541,-5.23045 l 2.29724,-2.61951 2.1089,-2.31313 2.36265,-2.69931 c 4.453,-5.31548 8.44349,-9.15261 14.73469,-4.9708 z"
     fill="#0099e9"
     id="path3"
     sodipodi:nodetypes="ccccccccccccccccccccccccccccc"
     style="stroke-width:1.03148" /><path
     d="m 144.31323,140.15228 c 2.47914,1.63452 2.47914,1.63452 4.06832,4.18437 0.0941,5.21973 -1.15147,7.93287 -4.54507,11.72767 -1.97132,2.36892 -3.59202,4.88031 -5.24434,7.49428 l -1.75605,2.77052 c -3.60653,6.69798 -5.34225,13.42627 -6.44417,20.96268 l -0.3814,2.60349 c -1.70828,11.75169 -1.70828,11.75169 -0.95352,23.48343 2.45534,2.79788 2.45534,2.79788 5.08542,5.23047 2.06607,5.44145 0.12411,11.56765 -0.76282,17.12976 l -0.52444,3.56326 c -1.79682,11.49608 -1.31906,12.09275 -4.81523,15.92021 -2.96562,1.47691 -3.54574,1.4418 -6.7442,1.011 l -2.40955,-2.05709 c -8.2096,-10.94954 -14.0983,-26.08745 -18.30746,-39.75151 l -0.762797,-2.38639 c -3.274266,-12.16096 -2.60536,-26.94899 3.245907,-38.05569 1.77217,-3.00683 3.66406,-5.86513 5.65354,-8.72424 l 1.99842,-2.91762 c 6.81885,-9.27279 21.29692,-24.11413 33.59944,-22.1886 z"
     fill="#0195e6"
     id="path5"
     sodipodi:nodetypes="cccccccccccccccccccc"
     style="stroke-width:1.03148" /><ellipse
     style="fill:#0058ba;fill-opacity:1;stroke-width:1.03148"
     id="path42"
     cx="200.56447"
     cy="61.697445"
     rx="31.941034"
     ry="32.852104" /><ellipse
     style="fill:#006bcc;fill-opacity:1;stroke-width:1.03148"
     id="path42-7"
     cx="33.377213"
     cy="235.11646"
     rx="31.941034"
     ry="32.852104" /><ellipse
     style="fill:#0080de;fill-opacity:1;stroke-width:1.03148"
     id="path42-9"
     cx="366.70007"
     cy="235.35545"
     rx="31.941034"
     ry="32.852104" /></svg>
